<mxfile host="app.diagrams.net" modified="2024-04-17T01:59:27.363Z" agent="Mozilla/5.0 (Windows NT 10.0; Win64; x64) AppleWebKit/537.36 (KHTML, like Gecko) Chrome/123.0.0.0 Safari/537.36" version="24.2.5" etag="mb5c_yJyH0iuERNBQztX" type="github">
  <diagram name="페이지-1" id="33PKUb-OuoxNd1310vYd">
    <mxGraphModel>
      <root>
        <mxCell id="0" />
        <mxCell id="1" parent="0" />
      </root>
    </mxGraphModel>
  </diagram>
</mxfile>
